{
  "accessors": [
    {
      "bufferView": 2,
      "componentType": 5126,
      "count": 11,
      "max": [
        0.9819538593292236,
        0.1558462381362915,
        0.0
      ],
      "min": [
        -0.018046259880065918,
        -0.07499072700738907,
        -1.0
      ],
      "type": "VEC3"
    },
    {
      "bufferView": 2,
      "byteOffset": 132,
      "componentType": 5126,
      "count": 11,
      "max": [
        0.17063628137111664,
        0.9937916994094849,
        0.27298277616500854
      ],
      "min": [
        -0.20798681676387787,
        0.9610722661018372,
        -0.07374599575996399
      ],
      "type": "VEC3"
    },
    {
      "bufferView": 1,
      "componentType": 5126,
      "count": 11,
      "max": [
        0.9930177927017212,
        0.9773656129837036
      ],
      "min": [
        0.04161737859249115,
        0.0
      ],
      "type": "VEC2"
    },
    {
      "bufferView": 1,
      "byteOffset": 88,
      "componentType": 5126,
      "count": 11,
      "max": [
        0.9930177927017212,
        0.9773656129837036
      ],
      "min": [
        0.04161737859249115,
        0.0
      ],
      "type": "VEC2"
    },
    {
      "bufferView": 0,
      "componentType": 5125,
      "count": 30,
      "type": "SCALAR"
    },
    {
      "bufferView": 2,
      "byteOffset": 264,
      "componentType": 5126,
      "count": 11,
      "max": [
        0.9819538593292236,
        0.1558462381362915,
        0.0
      ],
      "min": [
        -0.018046259880065918,
        -0.07499072700738907,
        -1.0
      ],
      "type": "VEC3"
    },
    {
      "bufferView": 2,
      "byteOffset": 396,
      "componentType": 5126,
      "count": 11,
      "max": [
        0.17063628137111664,
        0.9937916994094849,
        0.27298277616500854
      ],
      "min": [
        -0.20798681676387787,
        0.9610722661018372,
        -0.07374599575996399
      ],
      "type": "VEC3"
    },
    {
      "bufferView": 1,
      "byteOffset": 176,
      "componentType": 5126,
      "count": 11,
      "max": [
        0.9930177927017212,
        0.9773656129837036
      ],
      "min": [
        0.04161737859249115,
        0.0
      ],
      "type": "VEC2"
    },
    {
      "bufferView": 1,
      "byteOffset": 264,
      "componentType": 5126,
      "count": 11,
      "max": [
        0.9930177927017212,
        0.9773656129837036
      ],
      "min": [
        0.04161737859249115,
        0.0
      ],
      "type": "VEC2"
    },
    {
      "bufferView": 0,
      "byteOffset": 120,
      "componentType": 5125,
      "count": 30,
      "type": "SCALAR"
    },
    {
      "bufferView": 2,
      "byteOffset": 528,
      "componentType": 5126,
      "count": 11,
      "max": [
        0.9819538593292236,
        0.1558462381362915,
        0.0
      ],
      "min": [
        -0.018046259880065918,
        -0.07499072700738907,
        -1.0
      ],
      "type": "VEC3"
    },
    {
      "bufferView": 2,
      "byteOffset": 660,
      "componentType": 5126,
      "count": 11,
      "max": [
        0.17063628137111664,
        0.9937916994094849,
        0.27298277616500854
      ],
      "min": [
        -0.20798681676387787,
        0.9610722661018372,
        -0.07374599575996399
      ],
      "type": "VEC3"
    },
    {
      "bufferView": 1,
      "byteOffset": 352,
      "componentType": 5126,
      "count": 11,
      "max": [
        0.9930177927017212,
        0.9773656129837036
      ],
      "min": [
        0.04161737859249115,
        0.0
      ],
      "type": "VEC2"
    },
    {
      "bufferView": 1,
      "byteOffset": 440,
      "componentType": 5126,
      "count": 11,
      "max": [
        0.9930177927017212,
        0.9773656129837036
      ],
      "min": [
        0.04161737859249115,
        0.0
      ],
      "type": "VEC2"
    },
    {
      "bufferView": 0,
      "byteOffset": 240,
      "componentType": 5125,
      "count": 30,
      "type": "SCALAR"
    },
    {
      "bufferView": 2,
      "byteOffset": 792,
      "componentType": 5126,
      "count": 11,
      "max": [
        0.9819538593292236,
        0.1558462381362915,
        0.0
      ],
      "min": [
        -0.018046259880065918,
        -0.07499072700738907,
        -1.0
      ],
      "type": "VEC3"
    },
    {
      "bufferView": 2,
      "byteOffset": 924,
      "componentType": 5126,
      "count": 11,
      "max": [
        0.17063628137111664,
        0.9937916994094849,
        0.27298277616500854
      ],
      "min": [
        -0.20798681676387787,
        0.9610722661018372,
        -0.07374599575996399
      ],
      "type": "VEC3"
    },
    {
      "bufferView": 1,
      "byteOffset": 528,
      "componentType": 5126,
      "count": 11,
      "max": [
        0.9930177927017212,
        0.9773656129837036
      ],
      "min": [
        0.04161737859249115,
        0.0
      ],
      "type": "VEC2"
    },
    {
      "bufferView": 1,
      "byteOffset": 616,
      "componentType": 5126,
      "count": 11,
      "max": [
        0.9930177927017212,
        0.9773656129837036
      ],
      "min": [
        0.04161737859249115,
        0.0
      ],
      "type": "VEC2"
    },
    {
      "bufferView": 0,
      "byteOffset": 360,
      "componentType": 5125,
      "count": 30,
      "type": "SCALAR"
    },
    {
      "bufferView": 2,
      "byteOffset": 1056,
      "componentType": 5126,
      "count": 11,
      "max": [
        0.9819538593292236,
        0.1558462381362915,
        0.0
      ],
      "min": [
        -0.018046259880065918,
        -0.07499072700738907,
        -1.0
      ],
      "type": "VEC3"
    },
    {
      "bufferView": 2,
      "byteOffset": 1188,
      "componentType": 5126,
      "count": 11,
      "max": [
        0.17063628137111664,
        0.9937916994094849,
        0.27298277616500854
      ],
      "min": [
        -0.20798681676387787,
        0.9610722661018372,
        -0.07374599575996399
      ],
      "type": "VEC3"
    },
    {
      "bufferView": 1,
      "byteOffset": 704,
      "componentType": 5126,
      "count": 11,
      "max": [
        0.9930177927017212,
        0.9773656129837036
      ],
      "min": [
        0.04161737859249115,
        0.0
      ],
      "type": "VEC2"
    },
    {
      "bufferView": 1,
      "byteOffset": 792,
      "componentType": 5126,
      "count": 11,
      "max": [
        0.9930177927017212,
        0.9773656129837036
      ],
      "min": [
        0.04161737859249115,
        0.0
      ],
      "type": "VEC2"
    },
    {
      "bufferView": 0,
      "byteOffset": 480,
      "componentType": 5125,
      "count": 30,
      "type": "SCALAR"
    }
  ],
  "asset": {
    "extras": {
      "author": "Abby757 (https://sketchfab.com/ItsAbProcess)",
      "license": "CC-BY-4.0 (http://creativecommons.org/licenses/by/4.0/)",
      "source": "https://sketchfab.com/3d-models/array-of-petals-c97ff76c09c14238abaf444570b46115",
      "title": "Array of Petals"
    },
    "generator": "Sketchfab-12.66.0",
    "version": "2.0"
  },
  "bufferViews": [
    {
      "buffer": 0,
      "byteLength": 600,
      "name": "floatBufferViews",
      "target": 34963
    },
    {
      "buffer": 0,
      "byteLength": 880,
      "byteOffset": 600,
      "byteStride": 8,
      "name": "floatBufferViews",
      "target": 34962
    },
    {
      "buffer": 0,
      "byteLength": 1320,
      "byteOffset": 1480,
      "byteStride": 12,
      "name": "floatBufferViews",
      "target": 34962
    }
  ],
  "buffers": [
    {
      "byteLength": 2800,
      "uri": "scene.bin"
    }
  ],
  "extensionsUsed": [
    "KHR_materials_unlit"
  ],
  "images": [
    {
      "uri": "textures/lambert4_baseColor.png"
    },
    {
      "uri": "textures/lambert4_emissive.png"
    }
  ],
  "materials": [
    {
      "alphaMode": "BLEND",
      "doubleSided": true,
      "emissiveFactor": [
        1.0,
        1.0,
        1.0
      ],
      "emissiveTexture": {
        "index": 1
      },
      "extensions": {
        "KHR_materials_unlit": {}
      },
      "name": "lambert4",
      "pbrMetallicRoughness": {
        "baseColorTexture": {
          "index": 0
        },
        "metallicFactor": 0.0
      }
    }
  ],
  "meshes": [
    {
      "name": "pPlane1_lambert4_0",
      "primitives": [
        {
          "attributes": {
            "NORMAL": 1,
            "POSITION": 0,
            "TEXCOORD_0": 2,
            "TEXCOORD_1": 3
          },
          "indices": 4,
          "material": 0,
          "mode": 4
        }
      ]
    },
    {
      "name": "pPlane2_lambert4_0",
      "primitives": [
        {
          "attributes": {
            "NORMAL": 6,
            "POSITION": 5,
            "TEXCOORD_0": 7,
            "TEXCOORD_1": 8
          },
          "indices": 9,
          "material": 0,
          "mode": 4
        }
      ]
    },
    {
      "name": "pPlane3_lambert4_0",
      "primitives": [
        {
          "attributes": {
            "NORMAL": 11,
            "POSITION": 10,
            "TEXCOORD_0": 12,
            "TEXCOORD_1": 13
          },
          "indices": 14,
          "material": 0,
          "mode": 4
        }
      ]
    },
    {
      "name": "pPlane4_lambert4_0",
      "primitives": [
        {
          "attributes": {
            "NORMAL": 16,
            "POSITION": 15,
            "TEXCOORD_0": 17,
            "TEXCOORD_1": 18
          },
          "indices": 19,
          "material": 0,
          "mode": 4
        }
      ]
    },
    {
      "name": "pPlane5_lambert4_0",
      "primitives": [
        {
          "attributes": {
            "NORMAL": 21,
            "POSITION": 20,
            "TEXCOORD_0": 22,
            "TEXCOORD_1": 23
          },
          "indices": 24,
          "material": 0,
          "mode": 4
        }
      ]
    }
  ],
  "nodes": [
    {
      "children": [
        1
      ],
      "matrix": [
        1.0,
        0.0,
        0.0,
        0.0,
        0.0,
        2.220446049250313e-16,
        -1.0,
        0.0,
        0.0,
        1.0,
        2.220446049250313e-16,
        0.0,
        0.0,
        0.0,
        0.0,
        1.0
      ],
      "name": "Sketchfab_model"
    },
    {
      "children": [
        2
      ],
      "matrix": [
        1.0,
        0.0,
        0.0,
        0.0,
        0.0,
        0.0,
        1.0,
        0.0,
        0.0,
        -1.0,
        0.0,
        0.0,
        0.0,
        0.0,
        0.0,
        1.0
      ],
      "name": "SM_PetalArray.fbx"
    },
    {
      "children": [
        3,
        5,
        7,
        9,
        11
      ],
      "name": "RootNode"
    },
    {
      "children": [
        4
      ],
      "name": "pPlane1"
    },
    {
      "mesh": 0,
      "name": "pPlane1_lambert4_0"
    },
    {
      "children": [
        6
      ],
      "matrix": [
        0.30901699437494756,
        0.0,
        -0.9510565162951536,
        0.0,
        0.0,
        1.0,
        0.0,
        0.0,
        0.9510565162951536,
        0.0,
        0.30901699437494756,
        0.0,
        0.0,
        0.0,
        0.0,
        1.0
      ],
      "name": "pPlane2"
    },
    {
      "mesh": 1,
      "name": "pPlane2_lambert4_0"
    },
    {
      "children": [
        8
      ],
      "matrix": [
        -0.8090169943749477,
        9.907600726170916e-17,
        -0.5877852522924732,
        0.0,
        5.0481747134135645e-17,
        1.0,
        9.907600726170916e-17,
        0.0,
        0.5877852522924732,
        5.0481747134135645e-17,
        -0.8090169943749477,
        0.0,
        0.0,
        0.0,
        0.0,
        1.0
      ],
      "name": "pPlane3"
    },
    {
      "mesh": 2,
      "name": "pPlane3_lambert4_0"
    },
    {
      "children": [
        10
      ],
      "matrix": [
        -0.8090169943749477,
        9.907600726170918e-17,
        0.587785252292473,
        0.0,
        1.94447612695335e-16,
        1.0,
        9.907600726170916e-17,
        0.0,
        -0.587785252292473,
        1.9444761269533497e-16,
        -0.8090169943749477,
        0.0,
        0.0,
        0.0,
        0.0,
        1.0
      ],
      "name": "pPlane4"
    },
    {
      "mesh": 3,
      "name": "pPlane4_lambert4_0"
    },
    {
      "children": [
        12
      ],
      "matrix": [
        0.3090169943749471,
        0.0,
        0.9510565162951536,
        0.0,
        0.0,
        1.0,
        0.0,
        0.0,
        -0.9510565162951536,
        0.0,
        0.3090169943749471,
        0.0,
        0.0,
        0.0,
        0.0,
        1.0
      ],
      "name": "pPlane5"
    },
    {
      "mesh": 4,
      "name": "pPlane5_lambert4_0"
    }
  ],
  "samplers": [
    {
      "magFilter": 9729,
      "minFilter": 9987,
      "wrapS": 10497,
      "wrapT": 10497
    }
  ],
  "scene": 0,
  "scenes": [
    {
      "name": "Sketchfab_Scene",
      "nodes": [
        0
      ]
    }
  ],
  "textures": [
    {
      "sampler": 0,
      "source": 0
    },
    {
      "sampler": 0,
      "source": 1
    }
  ]
}
